<svg width="419.74062499999997px" height="144.8px" xmlns="http://www.w3.org/2000/svg" viewBox="40.12968750000002 2.5999999999999943 419.74062499999997 144.8" style="background: rgba(0, 0, 0, 0);" preserveAspectRatio="xMidYMid"><defs><filter id="editing-offset"><feFlood flood-color="#f00" flood-opacity="0.5" result="c1"></feFlood><feFlood flood-color="#0f0" flood-opacity="0.5" result="c2"></feFlood><feFlood flood-color="#00f" flood-opacity="0.5" result="c3"></feFlood><feComposite operator="in" in="c1" in2="SourceAlpha" result="text-c1"></feComposite><feComposite operator="in" in="c2" in2="SourceAlpha" result="text-c2"></feComposite><feComposite operator="in" in="c3" in2="SourceAlpha" result="text-c3"></feComposite><feOffset in="text-c1" dx="-10" dy="0" result="text1"></feOffset><feOffset in="text-c2" dx="10" dy="0" result="text2"></feOffset><feOffset in="text-c3" dx="0" dy="0" result="text3"></feOffset><feMerge><feMergeNode in="text1"></feMergeNode><feMergeNode in="text2"></feMergeNode><feMergeNode in="text3"></feMergeNode></feMerge></filter></defs><g filter="url(#editing-offset)"><g transform="translate(103.11998474597931, 112.18500709533691)"><path d="M0.88-43.19L0.88-43.94L0.88-43.94Q0.88-44.69 1.41-45.16L1.41-45.16L1.41-45.16Q1.94-45.63 2.69-45.63L2.69-45.63L2.69-45.63Q2.75-45.63 3-45.63L3-45.63L3-45.63Q3.25-45.63 3.31-45.63L3.31-45.63L3.31-45.63Q3.63-40.38 3.88-35.66L3.88-35.66L3.88-35.66Q4.13-30.94 4.28-26.38L4.28-26.38L4.28-26.38Q4.44-21.81 4.50-17.28L4.50-17.28L4.50-17.28Q4.56-12.75 4.56-7.81L4.56-7.81L4.56-7.81Q4.56-7.13 4.66-5.94L4.66-5.94L4.66-5.94Q4.75-4.75 4.84-3.63L4.84-3.63L4.84-3.63Q4.94-2.50 5.03-1.59L5.03-1.59L5.03-1.59Q5.13-0.69 5.13-0.63L5.13-0.63L2.44-0.13L2.44-0.13Q2.31-2.69 2.19-6.03L2.19-6.03L2.19-6.03Q2.06-9.38 1.97-13.16L1.97-13.16L1.97-13.16Q1.88-16.94 1.78-20.97L1.78-20.97L1.78-20.97Q1.69-25 1.53-28.94L1.53-28.94L1.53-28.94Q1.38-32.88 1.22-36.53L1.22-36.53L1.22-36.53Q1.06-40.19 0.88-43.19L0.88-43.19ZM7.44-24.38L7.44-24.38L7.44-24.38Q8.19-24.38 9.06-24L9.06-24L9.06-24Q9.94-23.63 10.31-22.50L10.31-22.50L10.31-22.50Q10.81-24.63 11.84-25.94L11.84-25.94L11.84-25.94Q12.88-27.25 14.22-27.75L14.22-27.75L14.22-27.75Q15.56-28.25 17.03-28.09L17.03-28.09L17.03-28.09Q18.50-27.94 19.78-27.19L19.78-27.19L19.78-27.19Q21.06-26.44 22.03-25.25L22.03-25.25L22.03-25.25Q23-24.06 23.38-22.50L23.38-22.50L23.38-22.50Q24.06-24.44 25.22-26.09L25.22-26.09L25.22-26.09Q26.38-27.75 27.78-28.88L27.78-28.88L27.78-28.88Q29.19-30 30.72-30.44L30.72-30.44L30.72-30.44Q32.25-30.88 33.59-30.41L33.59-30.41L33.59-30.41Q34.94-29.94 35.97-28.41L35.97-28.41L35.97-28.41Q37-26.88 37.44-24L37.44-24L37.44-24Q37.56-23.19 37.75-21.59L37.75-21.59L37.75-21.59Q37.94-20 38.16-18L38.16-18L38.16-18Q38.38-16 38.66-13.78L38.66-13.78L38.66-13.78Q38.94-11.56 39.16-9.56L39.16-9.56L39.16-9.56Q39.38-7.56 39.56-5.97L39.56-5.97L39.56-5.97Q39.75-4.38 39.88-3.63L39.88-3.63L39.88-3.63Q39.88-3 39.81-2.25L39.81-2.25L39.81-2.25Q39.75-1.50 39.53-0.97L39.53-0.97L39.53-0.97Q39.31-0.44 38.84-0.28L38.84-0.28L38.84-0.28Q38.38-0.13 37.44-0.81L37.44-0.81L37.44-0.81Q37.44-1.56 37.25-3.25L37.25-3.25L37.25-3.25Q37.06-4.94 36.88-7.16L36.88-7.16L36.88-7.16Q36.69-9.38 36.41-11.84L36.41-11.84L36.41-11.84Q36.13-14.31 35.84-16.50L35.84-16.50L35.84-16.50Q35.56-18.69 35.38-20.38L35.38-20.38L35.38-20.38Q35.19-22.06 35-22.75L35-22.75L35-22.75Q34.06-25.63 33.03-26.75L33.03-26.75L33.03-26.75Q32-27.88 30.97-27.75L30.97-27.75L30.97-27.75Q29.94-27.63 29-26.44L29-26.44L29-26.44Q28.06-25.25 27.31-23.44L27.31-23.44L27.31-23.44Q26.56-21.63 25.91-19.41L25.91-19.41L25.91-19.41Q25.25-17.19 24.91-15L24.91-15L24.91-15Q24.56-12.81 24.47-10.88L24.47-10.88L24.47-10.88Q24.38-8.94 24.69-7.69L24.69-7.69L22.25-7.19L22.25-7.19Q22.44-13.19 21.84-17.03L21.84-17.03L21.84-17.03Q21.25-20.88 20.22-22.94L20.22-22.94L20.22-22.94Q19.19-25 17.88-25.41L17.88-25.41L17.88-25.41Q16.56-25.81 15.28-24.88L15.28-24.88L15.28-24.88Q14-23.94 12.94-21.75L12.94-21.75L12.94-21.75Q11.88-19.56 11.34-16.47L11.34-16.47L11.34-16.47Q10.81-13.38 10.94-9.50L10.94-9.50L10.94-9.50Q11.06-5.63 12.25-1.19L12.25-1.19L9.88-1.19L9.88-1.19Q9.88-1.19 9.72-2.38L9.72-2.38L9.72-2.38Q9.56-3.56 9.34-5.41L9.34-5.41L9.34-5.41Q9.13-7.25 8.88-9.59L8.88-9.59L8.88-9.59Q8.63-11.94 8.38-14.34L8.38-14.34L8.38-14.34Q8.13-16.75 7.88-18.97L7.88-18.97L7.88-18.97Q7.63-21.19 7.44-22.75L7.44-22.75L7.44-22.75Q7.44-22.94 7.44-23.59L7.44-23.59L7.44-23.59Q7.44-24.25 7.44-24.38ZM42.56-5.38L42.56-5.38L42.56-5.38Q42.56-8.94 44.53-10.56L44.53-10.56L44.53-10.56Q46.50-12.19 49.69-12.19L49.69-12.19L49.69-12.19Q50.94-12.19 52.03-12.13L52.03-12.13L52.03-12.13Q53.13-12.06 54.13-11.81L54.13-11.81L54.13-11.81Q55.13-11.56 56.09-11.06L56.09-11.06L56.09-11.06Q57.06-10.56 58.13-9.63L58.13-9.63L58.13-9.63Q58.13-9.81 58.16-10.41L58.16-10.41L58.16-10.41Q58.19-11 58.19-11.69L58.19-11.69L58.19-11.69Q58.19-12.38 58.19-12.97L58.19-12.97L58.19-12.97Q58.19-13.56 58.19-13.81L58.19-13.81L58.19-13.81Q58.13-14.94 58.13-16.72L58.13-16.72L58.13-16.72Q58.13-18.50 57.84-20.38L57.84-20.38L57.84-20.38Q57.56-22.25 56.72-23.94L56.72-23.94L56.72-23.94Q55.88-25.63 54-26.50L54-26.50L54-26.50Q52.69-26.50 51.56-26.06L51.56-26.06L51.56-26.06Q50.44-25.63 49.31-25.13L49.31-25.13L49.31-25.13Q48.19-24.63 47.06-24.22L47.06-24.22L47.06-24.22Q45.94-23.81 44.63-23.81L44.63-23.81L44.63-23.81Q44.63-25.38 45.59-26.41L45.59-26.41L45.59-26.41Q46.56-27.44 47.94-28L47.94-28L47.94-28Q49.31-28.56 50.81-28.75L50.81-28.75L50.81-28.75Q52.31-28.94 53.44-28.94L53.44-28.94L53.44-28.94Q54.56-28.75 55.53-28.50L55.53-28.50L55.53-28.50Q56.50-28.25 57.34-27.50L57.34-27.50L57.34-27.50Q58.19-26.75 58.91-25.22L58.91-25.22L58.91-25.22Q59.63-23.69 60.16-20.94L60.16-20.94L60.16-20.94Q60.69-18.19 61.09-13.97L61.09-13.97L61.09-13.97Q61.50-9.75 61.75-3.63L61.75-3.63L61.75-3.63Q61.88-2.81 61.22-2.22L61.22-2.22L61.22-2.22Q60.56-1.63 59.44-1.22L59.44-1.22L59.44-1.22Q58.31-0.81 56.91-0.53L56.91-0.53L56.91-0.53Q55.50-0.25 54.06-0.13L54.06-0.13L54.06-0.13Q52.63 0 51.31 0.06L51.31 0.06L51.31 0.06Q50 0.13 49.13 0.13L49.13 0.13L49.13 0.13Q48 0.13 46.84-0.25L46.84-0.25L46.84-0.25Q45.69-0.63 44.72-1.34L44.72-1.34L44.72-1.34Q43.75-2.06 43.16-3.09L43.16-3.09L43.16-3.09Q42.56-4.13 42.56-5.38ZM50.69-9.75L50.69-9.75L50.69-9.75Q47.56-8.88 46.31-7.66L46.31-7.66L46.31-7.66Q45.06-6.44 45.22-5.31L45.22-5.31L45.22-5.31Q45.38-4.19 46.69-3.28L46.69-3.28L46.69-3.28Q48-2.38 49.88-2.09L49.88-2.09L49.88-2.09Q51.75-1.81 53.94-2.41L53.94-2.41L53.94-2.41Q56.13-3 58.13-4.75L58.13-4.75L58.13-4.75Q57.38-6.56 56.63-7.53L56.63-7.53L56.63-7.53Q55.88-8.50 55-9L55-9L55-9Q54.13-9.50 53.06-9.63L53.06-9.63L53.06-9.63Q52-9.75 50.69-9.75ZM55.38 14.81L55.38 14.81L55.38 14.81Q55.38 13.13 55.94 12.25L55.94 12.25L55.94 12.25Q56.50 11.38 58.56 11.38L58.56 11.38L58.56 11.38Q58.38 12.25 58.09 13.13L58.09 13.13L58.09 13.13Q57.81 14 57.59 14.75L57.59 14.75L57.59 14.75Q57.38 15.50 57.41 15.94L57.41 15.94L57.41 15.94Q57.44 16.38 57.88 16.25L57.88 16.25L57.88 16.25Q59.88 17.56 62.25 18.13L62.25 18.13L62.25 18.13Q64.63 18.69 66.94 18.69L66.94 18.69L66.94 18.69Q70.44 18.63 72.97 17.25L72.97 17.25L72.97 17.25Q75.50 15.88 77.16 13.69L77.16 13.69L77.16 13.69Q78.81 11.50 79.72 8.66L79.72 8.66L79.72 8.66Q80.63 5.81 80.84 2.78L80.84 2.78L80.84 2.78Q81.06-0.25 80.69-3.31L80.69-3.31L80.69-3.31Q80.31-6.38 79.50-8.94L79.50-8.94L79.50-8.94Q78.44-7.75 77.34-6.44L77.34-6.44L77.34-6.44Q76.25-5.13 75-4.09L75-4.09L75-4.09Q73.75-3.06 72.34-2.38L72.34-2.38L72.34-2.38Q70.94-1.69 69.19-1.69L69.19-1.69L69.19-1.69Q67.38-1.69 66.47-2.31L66.47-2.31L66.47-2.31Q65.56-2.94 65.25-4.03L65.25-4.03L65.25-4.03Q64.94-5.13 64.97-6.56L64.97-6.56L64.97-6.56Q65-8 65-9.63L65-9.63L65-9.63Q65-11.13 65.09-13L65.09-13L65.09-13Q65.19-14.88 65.53-16.78L65.53-16.78L65.53-16.78Q65.88-18.69 66.47-20.53L66.47-20.53L66.47-20.53Q67.06-22.38 68.06-23.84L68.06-23.84L68.06-23.84Q69.06-25.31 70.56-26.19L70.56-26.19L70.56-26.19Q72.06-27.06 74.13-27.06L74.13-27.06L74.13-27.06Q75.44-27.06 76.66-26.84L76.66-26.84L76.66-26.84Q77.88-26.63 78.91-26.06L78.91-26.06L78.91-26.06Q79.94-25.50 80.69-24.56L80.69-24.56L80.69-24.56Q81.44-23.63 81.88-22.19L81.88-22.19L81.88-22.19Q82.13-19.38 82.50-16.09L82.50-16.09L82.50-16.09Q82.88-12.81 83.13-9.28L83.13-9.28L83.13-9.28Q83.38-5.75 83.38-2.19L83.38-2.19L83.38-2.19Q83.38 1.38 82.91 4.69L82.91 4.69L82.91 4.69Q82.44 8 81.34 10.91L81.34 10.91L81.34 10.91Q80.25 13.81 78.28 16.03L78.28 16.03L78.28 16.03Q76.31 18.25 73.38 19.59L73.38 19.59L73.38 19.59Q70.44 20.94 66.31 21.06L66.31 21.06L66.31 21.06Q64.56 21.06 62.63 20.84L62.63 20.84L62.63 20.84Q60.69 20.63 59.06 19.97L59.06 19.97L59.06 19.97Q57.44 19.31 56.41 18.09L56.41 18.09L56.41 18.09Q55.38 16.88 55.38 14.81ZM67.38-9.63L67.38-9.63L67.38-9.63Q67.38-8.94 67.31-8.06L67.31-8.06L67.31-8.06Q67.25-7.19 67.38-6.31L67.38-6.31L67.38-6.31Q67.50-5.44 67.91-4.81L67.91-4.81L67.91-4.81Q68.31-4.19 69.25-4.13L69.25-4.13L69.25-4.13Q70.75-4.13 72.03-4.81L72.03-4.81L72.03-4.81Q73.31-5.50 74.34-6.69L74.34-6.69L74.34-6.69Q75.38-7.88 76.16-9.34L76.16-9.34L76.16-9.34Q76.94-10.81 77.47-12.38L77.47-12.38L77.47-12.38Q78-13.94 78.28-15.41L78.28-15.41L78.28-15.41Q78.56-16.88 78.56-18L78.56-18L78.56-18Q78.75-19.19 78.59-20.38L78.59-20.38L78.59-20.38Q78.44-21.56 77.88-22.50L77.88-22.50L77.88-22.50Q77.31-23.44 76.38-24.03L76.38-24.03L76.38-24.03Q75.44-24.63 74.13-24.63L74.13-24.63L74.13-24.63Q72.63-24.63 71.50-23.78L71.50-23.78L71.50-23.78Q70.38-22.94 69.63-21.63L69.63-21.63L69.63-21.63Q68.88-20.31 68.44-18.66L68.44-18.66L68.44-18.66Q68-17 67.78-15.34L67.78-15.34L67.78-15.34Q67.56-13.69 67.47-12.16L67.47-12.16L67.47-12.16Q67.38-10.63 67.38-9.63ZM86.81-14.69L86.81-14.69L86.81-14.69Q86.81-16.56 87.63-18.84L87.63-18.84L87.63-18.84Q88.44-21.13 89.84-23.09L89.84-23.09L89.84-23.09Q91.25-25.06 93.03-26.41L93.03-26.41L93.03-26.41Q94.81-27.75 96.75-27.75L96.75-27.75L96.75-27.75Q97.81-27.75 98.84-27.31L98.84-27.31L98.84-27.31Q99.88-26.88 100.84-26.16L100.84-26.16L100.84-26.16Q101.81-25.44 102.59-24.53L102.59-24.53L102.59-24.53Q103.38-23.63 103.81-22.63L103.81-22.63L103.81-22.63Q104.25-21.63 104.28-20.69L104.28-20.69L104.28-20.69Q104.31-19.75 103.75-19.06L103.75-19.06L90.56-16.63L90.56-16.63Q90.31-16.56 90.13-16.03L90.13-16.03L90.13-16.03Q89.94-15.50 89.81-14.69L89.81-14.69L89.81-14.69Q89.69-13.88 89.59-12.91L89.59-12.91L89.59-12.91Q89.50-11.94 89.44-11.03L89.44-11.03L89.44-11.03Q89.38-10.13 89.38-9.41L89.38-9.41L89.38-9.41Q89.38-8.69 89.38-8.31L89.38-8.31L89.38-8.31Q89.38-6.56 90.22-5.47L90.22-5.47L90.22-5.47Q91.06-4.38 92.38-3.81L92.38-3.81L92.38-3.81Q93.69-3.25 95.34-3.06L95.34-3.06L95.34-3.06Q97-2.88 98.63-2.88L98.63-2.88L98.63-2.88Q100.25-2.88 101.69-3L101.69-3L101.69-3Q103.13-3.13 104.06-3.13L104.06-3.13L104.06-3.13Q104.06-2.88 103.88-2.56L103.88-2.56L103.88-2.56Q103.69-2.25 103.44-1.97L103.44-1.97L103.44-1.97Q103.19-1.69 102.94-1.47L102.94-1.47L102.94-1.47Q102.69-1.25 102.63-1.19L102.63-1.19L102.63-1.19Q102.13-1.06 101.09-0.84L101.09-0.84L101.09-0.84Q100.06-0.63 98.91-0.44L98.91-0.44L98.91-0.44Q97.75-0.25 96.75-0.13L96.75-0.13L96.75-0.13Q95.75 0 95.38 0L95.38 0L95.38 0Q93.44 0.38 92-0.06L92-0.06L92-0.06Q90.56-0.50 89.56-1.56L89.56-1.56L89.56-1.56Q88.56-2.63 87.94-4.16L87.94-4.16L87.94-4.16Q87.31-5.69 87-7.44L87-7.44L87-7.44Q86.69-9.19 86.66-11.06L86.66-11.06L86.66-11.06Q86.63-12.94 86.81-14.69ZM95.88-25.38L95.88-25.38L95.88-25.38Q95.31-25.38 94.41-24.78L94.41-24.78L94.41-24.78Q93.50-24.19 92.72-23.28L92.72-23.28L92.72-23.28Q91.94-22.38 91.41-21.34L91.41-21.34L91.41-21.34Q90.88-20.31 91.06-19.56L91.06-19.56L91.06-19.56Q92.69-19.38 94.44-19.63L94.44-19.63L94.44-19.63Q96.19-19.88 97.63-20.41L97.63-20.41L97.63-20.41Q99.06-20.94 100-21.66L100-21.66L100-21.66Q100.94-22.38 100.91-23.13L100.91-23.13L100.91-23.13Q100.88-23.88 99.72-24.47L99.72-24.47L99.72-24.47Q98.56-25.06 95.88-25.38ZM110.75-5.06L110.75-5.06L110.75-5.06Q111.88-5.06 112.84-4.63L112.84-4.63L112.84-4.63Q113.81-4.19 114.75-3.66L114.75-3.66L114.75-3.66Q115.69-3.13 116.66-2.72L116.66-2.72L116.66-2.72Q117.63-2.31 118.75-2.31L118.75-2.31L118.75-2.31Q120.06-2.31 121.47-2.78L121.47-2.78L121.47-2.78Q122.88-3.25 124.06-4.09L124.06-4.09L124.06-4.09Q125.25-4.94 126-6.16L126-6.16L126-6.16Q126.75-7.38 126.75-8.81L126.75-8.81L126.75-8.81Q126.81-9.25 126.78-9.88L126.78-9.88L126.78-9.88Q126.75-10.50 126.38-11.16L126.38-11.16L126.38-11.16Q126-11.81 125.13-12.41L125.13-12.41L125.13-12.41Q124.25-13 122.59-13.31L122.59-13.31L122.59-13.31Q120.94-13.63 118.44-13.66L118.44-13.66L118.44-13.66Q115.94-13.69 112.25-13.19L112.25-13.19L112.25-13.19Q111.31-13.19 110.44-13.72L110.44-13.72L110.44-13.72Q109.56-14.25 108.88-15.03L108.88-15.03L108.88-15.03Q108.19-15.81 107.75-16.72L107.75-16.72L107.75-16.72Q107.31-17.63 107.31-18.44L107.31-18.44L107.31-18.44Q107.31-20.88 108.34-22.41L108.34-22.41L108.34-22.41Q109.38-23.94 111-24.84L111-24.84L111-24.84Q112.63-25.75 114.63-26.13L114.63-26.13L114.63-26.13Q116.63-26.50 118.69-26.50L118.69-26.50L118.69-26.50Q119.63-26.50 120.84-26.41L120.84-26.41L120.84-26.41Q122.06-26.31 123.09-25.91L123.09-25.91L123.09-25.91Q124.13-25.50 124.84-24.63L124.84-24.63L124.84-24.63Q125.56-23.75 125.56-22.19L125.56-22.19L125.56-22.19Q125.44-21.13 125.22-20.91L125.22-20.91L125.22-20.91Q125-20.69 124.59-21.03L124.59-21.03L124.59-21.03Q124.19-21.38 123.63-22L123.63-22L123.63-22Q123.06-22.63 122.28-23.22L122.28-23.22L122.28-23.22Q121.50-23.81 120.41-24.13L120.41-24.13L120.41-24.13Q119.31-24.44 117.94-24.13L117.94-24.13L117.94-24.13Q116.50-24.13 115.06-23.84L115.06-23.84L115.06-23.84Q113.63-23.56 112.47-22.88L112.47-22.88L112.47-22.88Q111.31-22.19 110.59-21L110.59-21L110.59-21Q109.88-19.81 109.88-18L109.88-18L109.88-18Q109.88-17.06 110.72-16.72L110.72-16.72L110.72-16.72Q111.56-16.38 112.97-16.38L112.97-16.38L112.97-16.38Q114.38-16.38 116.16-16.47L116.16-16.47L116.16-16.47Q117.94-16.56 119.81-16.56L119.81-16.56L119.81-16.56Q121.69-16.56 123.44-16.28L123.44-16.28L123.44-16.28Q125.19-16 126.53-15.16L126.53-15.16L126.53-15.16Q127.88-14.31 128.63-12.75L128.63-12.75L128.63-12.75Q129.38-11.19 129.19-8.69L129.19-8.69L129.19-8.69Q129.19-6.88 128.16-5.25L128.16-5.25L128.16-5.25Q127.13-3.63 125.53-2.41L125.53-2.41L125.53-2.41Q123.94-1.19 122-0.50L122-0.50L122-0.50Q120.06 0.19 118.25 0L118.25 0L118.25 0Q117.50-0.06 116.22-0.41L116.22-0.41L116.22-0.41Q114.94-0.75 113.72-1.38L113.72-1.38L113.72-1.38Q112.50-2 111.63-2.91L111.63-2.91L111.63-2.91Q110.75-3.81 110.75-5.06ZM187.25 5.50L184.88-4.13L184.88-4.13Q182.44-2.88 180.56-2.13L180.56-2.13L180.56-2.13Q178.69-1.38 176.94-0.97L176.94-0.97L176.94-0.97Q175.19-0.56 173.41-0.44L173.41-0.44L173.41-0.44Q171.63-0.31 169.31-0.31L169.31-0.31L169.31-0.31Q166.25-0.31 163.81-1.03L163.81-1.03L163.81-1.03Q161.38-1.75 159.66-3.22L159.66-3.22L159.66-3.22Q157.94-4.69 157-6.97L157-6.97L157-6.97Q156.06-9.25 156.06-12.50L156.06-12.50L156.06-12.50Q156.06-15.44 156.66-18.69L156.66-18.69L156.66-18.69Q157.25-21.94 158.41-25.16L158.41-25.16L158.41-25.16Q159.56-28.38 161.28-31.34L161.28-31.34L161.28-31.34Q163-34.31 165.31-36.56L165.31-36.56L165.31-36.56Q167.63-38.81 170.50-40.16L170.50-40.16L170.50-40.16Q173.38-41.50 176.88-41.50L176.88-41.50L176.88-41.50Q178.19-41.50 180-41.22L180-41.22L180-41.22Q181.81-40.94 183.47-40.28L183.47-40.28L183.47-40.28Q185.13-39.63 186.25-38.41L186.25-38.41L186.25-38.41Q187.38-37.19 187.38-35.31L187.38-35.31L187.38-35.31Q187.38-34.63 186.72-34.66L186.72-34.66L186.72-34.66Q186.06-34.69 185.09-35.13L185.09-35.13L185.09-35.13Q184.13-35.56 182.91-36.25L182.91-36.25L182.91-36.25Q181.69-36.94 180.56-37.56L180.56-37.56L180.56-37.56Q179.44-38.19 178.50-38.63L178.50-38.63L178.50-38.63Q177.56-39.06 177.06-38.94L177.06-38.94L177.06-38.94Q174.06-38.94 171.63-37.78L171.63-37.78L171.63-37.78Q169.19-36.63 167.22-34.69L167.22-34.69L167.22-34.69Q165.25-32.75 163.78-30.22L163.78-30.22L163.78-30.22Q162.31-27.69 161.34-24.94L161.34-24.94L161.34-24.94Q160.38-22.19 159.91-19.47L159.91-19.47L159.91-19.47Q159.44-16.75 159.44-14.31L159.44-14.31L159.44-14.31Q159-11.38 159.78-9.22L159.78-9.22L159.78-9.22Q160.56-7.06 162.13-5.66L162.13-5.66L162.13-5.66Q163.69-4.25 165.88-3.56L165.88-3.56L165.88-3.56Q168.06-2.88 170.41-2.78L170.41-2.78L170.41-2.78Q172.75-2.69 175.06-3.22L175.06-3.22L175.06-3.22Q177.38-3.75 179.28-4.81L179.28-4.81L179.28-4.81Q181.19-5.88 182.41-7.44L182.41-7.44L182.41-7.44Q183.63-9 183.81-10.94L183.81-10.94L183.81-10.94Q183.81-12.94 183.03-14.31L183.03-14.31L183.03-14.31Q182.25-15.69 180.97-16.63L180.97-16.63L180.97-16.63Q179.69-17.56 178.03-18.13L178.03-18.13L178.03-18.13Q176.38-18.69 174.66-19L174.66-19L174.66-19Q172.94-19.31 171.22-19.44L171.22-19.44L171.22-19.44Q169.50-19.56 168.06-19.75L168.06-19.75L168.06-20.88L168.06-20.88Q168.06-21 169.72-21.31L169.72-21.31L169.72-21.31Q171.38-21.63 173.66-22L173.66-22L173.66-22Q175.94-22.38 178.38-22.75L178.38-22.75L178.38-22.75Q180.81-23.13 182.50-23.31L182.50-23.31L182.50-23.31Q182.50-23.31 182.81-23.34L182.81-23.34L182.81-23.34Q183.13-23.38 183.50-23.38L183.50-23.38L183.50-23.38Q183.88-23.38 184.25-23.38L184.25-23.38L184.25-23.38Q184.63-23.38 184.88-23.38L184.88-23.38L184.88-23.38Q185-23.38 185.34-23.38L185.34-23.38L185.34-23.38Q185.69-23.38 186.06-23.38L186.06-23.38L186.06-23.38Q186.44-23.38 186.78-23.34L186.78-23.34L186.78-23.34Q187.13-23.31 187.25-23.31L187.25-23.31L187.25-23.31Q187.31-22.44 187.41-20.53L187.41-20.53L187.41-20.53Q187.50-18.63 187.63-16.28L187.63-16.28L187.63-16.28Q187.75-13.94 187.88-11.31L187.88-11.31L187.88-11.31Q188-8.69 188.13-6.34L188.13-6.34L188.13-6.34Q188.25-4 188.34-2.13L188.34-2.13L188.34-2.13Q188.44-0.25 188.50 0.69L188.50 0.69L188.50 0.69Q188.50 0.94 188.50 1.63L188.50 1.63L188.50 1.63Q188.50 2.31 188.53 3.09L188.53 3.09L188.53 3.09Q188.56 3.88 188.56 4.53L188.56 4.53L188.56 4.53Q188.56 5.19 188.56 5.50L188.56 5.50L187.25 5.50ZM181.25-19.75L184.88-17.31L184.88-21.13L184.88-21.13Q183.94-21.13 182.94-20.66L182.94-20.66L182.94-20.66Q181.94-20.19 181.25-19.75L181.25-19.75ZM191.19-5.38L191.19-5.38L191.19-5.38Q191.19-8.94 193.16-10.56L193.16-10.56L193.16-10.56Q195.13-12.19 198.31-12.19L198.31-12.19L198.31-12.19Q199.56-12.19 200.66-12.13L200.66-12.13L200.66-12.13Q201.75-12.06 202.75-11.81L202.75-11.81L202.75-11.81Q203.75-11.56 204.72-11.06L204.72-11.06L204.72-11.06Q205.69-10.56 206.75-9.63L206.75-9.63L206.75-9.63Q206.75-9.81 206.78-10.41L206.78-10.41L206.78-10.41Q206.81-11 206.81-11.69L206.81-11.69L206.81-11.69Q206.81-12.38 206.81-12.97L206.81-12.97L206.81-12.97Q206.81-13.56 206.81-13.81L206.81-13.81L206.81-13.81Q206.75-14.94 206.75-16.72L206.75-16.72L206.75-16.72Q206.75-18.50 206.47-20.38L206.47-20.38L206.47-20.38Q206.19-22.25 205.34-23.94L205.34-23.94L205.34-23.94Q204.50-25.63 202.63-26.50L202.63-26.50L202.63-26.50Q201.31-26.50 200.19-26.06L200.19-26.06L200.19-26.06Q199.06-25.63 197.94-25.13L197.94-25.13L197.94-25.13Q196.81-24.63 195.69-24.22L195.69-24.22L195.69-24.22Q194.56-23.81 193.25-23.81L193.25-23.81L193.25-23.81Q193.25-25.38 194.22-26.41L194.22-26.41L194.22-26.41Q195.19-27.44 196.56-28L196.56-28L196.56-28Q197.94-28.56 199.44-28.75L199.44-28.75L199.44-28.75Q200.94-28.94 202.06-28.94L202.06-28.94L202.06-28.94Q203.19-28.75 204.16-28.50L204.16-28.50L204.16-28.50Q205.13-28.25 205.97-27.50L205.97-27.50L205.97-27.50Q206.81-26.75 207.53-25.22L207.53-25.22L207.53-25.22Q208.25-23.69 208.78-20.94L208.78-20.94L208.78-20.94Q209.31-18.19 209.72-13.97L209.72-13.97L209.72-13.97Q210.13-9.75 210.38-3.63L210.38-3.63L210.38-3.63Q210.50-2.81 209.84-2.22L209.84-2.22L209.84-2.22Q209.19-1.63 208.06-1.22L208.06-1.22L208.06-1.22Q206.94-0.81 205.53-0.53L205.53-0.53L205.53-0.53Q204.13-0.25 202.69-0.13L202.69-0.13L202.69-0.13Q201.25 0 199.94 0.06L199.94 0.06L199.94 0.06Q198.63 0.13 197.75 0.13L197.75 0.13L197.75 0.13Q196.63 0.13 195.47-0.25L195.47-0.25L195.47-0.25Q194.31-0.63 193.34-1.34L193.34-1.34L193.34-1.34Q192.38-2.06 191.78-3.09L191.78-3.09L191.78-3.09Q191.19-4.13 191.19-5.38ZM199.31-9.75L199.31-9.75L199.31-9.75Q196.19-8.88 194.94-7.66L194.94-7.66L194.94-7.66Q193.69-6.44 193.84-5.31L193.84-5.31L193.84-5.31Q194-4.19 195.31-3.28L195.31-3.28L195.31-3.28Q196.63-2.38 198.50-2.09L198.50-2.09L198.50-2.09Q200.38-1.81 202.56-2.41L202.56-2.41L202.56-2.41Q204.75-3 206.75-4.75L206.75-4.75L206.75-4.75Q206-6.56 205.25-7.53L205.25-7.53L205.25-7.53Q204.50-8.50 203.63-9L203.63-9L203.63-9Q202.75-9.50 201.69-9.63L201.69-9.63L201.69-9.63Q200.63-9.75 199.31-9.75ZM214.38-48.56L214.38-48.56L214.38-48.56Q215.25-48.44 215.91-48.09L215.91-48.09L215.91-48.09Q216.56-47.75 216.94-46.88L216.94-46.88L216.94-46.88Q216.94-45.69 217.03-43.59L217.03-43.59L217.03-43.59Q217.13-41.50 217.22-38.75L217.22-38.75L217.22-38.75Q217.31-36 217.44-32.81L217.44-32.81L217.44-32.81Q217.56-29.63 217.69-26.38L217.69-26.38L217.69-26.38Q217.81-23.13 217.91-19.94L217.91-19.94L217.91-19.94Q218-16.75 218.09-14L218.09-14L218.09-14Q218.19-11.25 218.25-9.13L218.25-9.13L218.25-9.13Q218.31-7 218.38-5.88L218.38-5.88L218.38-5.88Q218.38-5.75 218.34-5.44L218.34-5.44L218.34-5.44Q218.31-5.13 218.28-4.69L218.28-4.69L218.28-4.69Q218.25-4.25 218.22-3.84L218.22-3.84L218.22-3.84Q218.19-3.44 218.19-3.25L218.19-3.25L218.19-3.25Q218.13-2.88 218.13-2.34L218.13-2.34L218.13-2.34Q218.13-1.81 218-1.31L218-1.31L218-1.31Q217.88-0.81 217.59-0.41L217.59-0.41L217.59-0.41Q217.31 0 216.69 0.06L216.69 0.06L215.63-1.25L215.63-1.25Q215.56-1.31 215.47-3.59L215.47-3.59L215.47-3.59Q215.38-5.88 215.22-9.53L215.22-9.53L215.22-9.53Q215.06-13.19 214.94-17.78L214.94-17.78L214.94-17.78Q214.81-22.38 214.66-27.06L214.66-27.06L214.66-27.06Q214.50-31.75 214.38-36.06L214.38-36.06L214.38-36.06Q214.25-40.38 214.19-43.50L214.19-43.50L214.19-43.50Q214.19-43.75 214.22-44.50L214.22-44.50L214.22-44.50Q214.25-45.25 214.28-46.03L214.28-46.03L214.28-46.03Q214.31-46.81 214.34-47.53L214.34-47.53L214.34-47.53Q214.38-48.25 214.38-48.56ZM223.44-48.56L223.44-48.56L223.44-48.56Q224.31-48.44 224.97-48.09L224.97-48.09L224.97-48.09Q225.63-47.75 226-46.88L226-46.88L226-46.88Q226-45.69 226.09-43.59L226.09-43.59L226.09-43.59Q226.19-41.50 226.28-38.75L226.28-38.75L226.28-38.75Q226.38-36 226.50-32.81L226.50-32.81L226.50-32.81Q226.63-29.63 226.75-26.38L226.75-26.38L226.75-26.38Q226.88-23.13 226.97-19.94L226.97-19.94L226.97-19.94Q227.06-16.75 227.16-14L227.16-14L227.16-14Q227.25-11.25 227.31-9.13L227.31-9.13L227.31-9.13Q227.38-7 227.44-5.88L227.44-5.88L227.44-5.88Q227.44-5.75 227.41-5.44L227.41-5.44L227.41-5.44Q227.38-5.13 227.34-4.69L227.34-4.69L227.34-4.69Q227.31-4.25 227.28-3.84L227.28-3.84L227.28-3.84Q227.25-3.44 227.25-3.25L227.25-3.25L227.25-3.25Q227.19-2.88 227.19-2.34L227.19-2.34L227.19-2.34Q227.19-1.81 227.06-1.31L227.06-1.31L227.06-1.31Q226.94-0.81 226.66-0.41L226.66-0.41L226.66-0.41Q226.38 0 225.75 0.06L225.75 0.06L224.69-1.25L224.69-1.25Q224.63-1.31 224.53-3.59L224.53-3.59L224.53-3.59Q224.44-5.88 224.28-9.53L224.28-9.53L224.28-9.53Q224.13-13.19 224-17.78L224-17.78L224-17.78Q223.88-22.38 223.72-27.06L223.72-27.06L223.72-27.06Q223.56-31.75 223.44-36.06L223.44-36.06L223.44-36.06Q223.31-40.38 223.25-43.50L223.25-43.50L223.25-43.50Q223.25-43.75 223.28-44.50L223.28-44.50L223.28-44.50Q223.31-45.25 223.34-46.03L223.34-46.03L223.34-46.03Q223.38-46.81 223.41-47.53L223.41-47.53L223.41-47.53Q223.44-48.25 223.44-48.56ZM231.38-14.69L231.38-14.69L231.38-14.69Q231.38-16.56 232.19-18.84L232.19-18.84L232.19-18.84Q233-21.13 234.41-23.09L234.41-23.09L234.41-23.09Q235.81-25.06 237.59-26.41L237.59-26.41L237.59-26.41Q239.38-27.75 241.31-27.75L241.31-27.75L241.31-27.75Q242.38-27.75 243.41-27.31L243.41-27.31L243.41-27.31Q244.44-26.88 245.41-26.16L245.41-26.16L245.41-26.16Q246.38-25.44 247.16-24.53L247.16-24.53L247.16-24.53Q247.94-23.63 248.38-22.63L248.38-22.63L248.38-22.63Q248.81-21.63 248.84-20.69L248.84-20.69L248.84-20.69Q248.88-19.75 248.31-19.06L248.31-19.06L235.13-16.63L235.13-16.63Q234.88-16.56 234.69-16.03L234.69-16.03L234.69-16.03Q234.50-15.50 234.38-14.69L234.38-14.69L234.38-14.69Q234.25-13.88 234.16-12.91L234.16-12.91L234.16-12.91Q234.06-11.94 234-11.03L234-11.03L234-11.03Q233.94-10.13 233.94-9.41L233.94-9.41L233.94-9.41Q233.94-8.69 233.94-8.31L233.94-8.31L233.94-8.31Q233.94-6.56 234.78-5.47L234.78-5.47L234.78-5.47Q235.63-4.38 236.94-3.81L236.94-3.81L236.94-3.81Q238.25-3.25 239.91-3.06L239.91-3.06L239.91-3.06Q241.56-2.88 243.19-2.88L243.19-2.88L243.19-2.88Q244.81-2.88 246.25-3L246.25-3L246.25-3Q247.69-3.13 248.63-3.13L248.63-3.13L248.63-3.13Q248.63-2.88 248.44-2.56L248.44-2.56L248.44-2.56Q248.25-2.25 248-1.97L248-1.97L248-1.97Q247.75-1.69 247.50-1.47L247.50-1.47L247.50-1.47Q247.25-1.25 247.19-1.19L247.19-1.19L247.19-1.19Q246.69-1.06 245.66-0.84L245.66-0.84L245.66-0.84Q244.63-0.63 243.47-0.44L243.47-0.44L243.47-0.44Q242.31-0.25 241.31-0.13L241.31-0.13L241.31-0.13Q240.31 0 239.94 0L239.94 0L239.94 0Q238 0.38 236.56-0.06L236.56-0.06L236.56-0.06Q235.13-0.50 234.13-1.56L234.13-1.56L234.13-1.56Q233.13-2.63 232.50-4.16L232.50-4.16L232.50-4.16Q231.88-5.69 231.56-7.44L231.56-7.44L231.56-7.44Q231.25-9.19 231.22-11.06L231.22-11.06L231.22-11.06Q231.19-12.94 231.38-14.69ZM240.44-25.38L240.44-25.38L240.44-25.38Q239.88-25.38 238.97-24.78L238.97-24.78L238.97-24.78Q238.06-24.19 237.28-23.28L237.28-23.28L237.28-23.28Q236.50-22.38 235.97-21.34L235.97-21.34L235.97-21.34Q235.44-20.31 235.63-19.56L235.63-19.56L235.63-19.56Q237.25-19.38 239-19.63L239-19.63L239-19.63Q240.75-19.88 242.19-20.41L242.19-20.41L242.19-20.41Q243.63-20.94 244.56-21.66L244.56-21.66L244.56-21.66Q245.50-22.38 245.47-23.13L245.47-23.13L245.47-23.13Q245.44-23.88 244.28-24.47L244.28-24.47L244.28-24.47Q243.13-25.06 240.44-25.38ZM251.63-24.38L251.63-24.38L251.63-24.38Q252.38-24.69 252.94-24.50L252.94-24.50L252.94-24.50Q253.50-24.31 253.88-23.81L253.88-23.81L253.88-23.81Q254.25-23.31 254.44-22.66L254.44-22.66L254.44-22.66Q254.63-22 254.75-21.38L254.75-21.38L254.75-21.38Q255.56-22.75 257.09-23.59L257.09-23.59L257.09-23.59Q258.63-24.44 260.38-24.72L260.38-24.72L260.38-24.72Q262.13-25 263.88-24.84L263.88-24.84L263.88-24.84Q265.63-24.69 266.84-24.09L266.84-24.09L266.84-24.09Q268.06-23.50 268.56-22.47L268.56-22.47L268.56-22.47Q269.06-21.44 268.31-20.06L268.31-20.06L268.31-20.06Q266.69-21 264.91-21.56L264.91-21.56L264.91-21.56Q263.13-22.13 261.44-21.94L261.44-21.94L261.44-21.94Q259.75-21.75 258.31-20.66L258.31-20.66L258.31-20.66Q256.88-19.56 255.94-17.19L255.94-17.19L255.94-17.19Q255-14.81 254.78-10.91L254.78-10.91L254.78-10.91Q254.56-7 255.31-1.19L255.31-1.19L252.94-1.19L252.94-1.19Q252.94-1.19 252.84-2.22L252.84-2.22L252.84-2.22Q252.75-3.25 252.66-4.94L252.66-4.94L252.66-4.94Q252.56-6.63 252.41-8.69L252.41-8.69L252.41-8.69Q252.25-10.75 252.13-12.88L252.13-12.88L252.13-12.88Q252-15 251.91-16.97L251.91-16.97L251.91-16.97Q251.81-18.94 251.69-20.38L251.69-20.38L251.69-20.38Q251.69-20.56 251.66-21.13L251.66-21.13L251.66-21.13Q251.63-21.69 251.63-22.34L251.63-22.34L251.63-22.34Q251.63-23 251.63-23.56L251.63-23.56L251.63-23.56Q251.63-24.13 251.63-24.38ZM286.13 25.81L283.31 25.63L283.31 25.63Q283.31 22.50 283.88 19.19L283.88 19.19L283.88 19.19Q284.44 15.88 285.03 12.56L285.03 12.56L285.03 12.56Q285.63 9.25 286.03 5.94L286.03 5.94L286.03 5.94Q286.44 2.63 286.13-0.56L286.13-0.56L270.56-26.94L270.56-26.94Q271.94-28.19 272.75-28.34L272.75-28.34L272.75-28.34Q273.56-28.50 273.69-28.38L273.69-28.38L273.69-28.38Q274.13-27.75 275.16-26.06L275.16-26.06L275.16-26.06Q276.19-24.38 277.53-22.13L277.53-22.13L277.53-22.13Q278.88-19.88 280.38-17.38L280.38-17.38L280.38-17.38Q281.88-14.88 283.22-12.63L283.22-12.63L283.22-12.63Q284.56-10.38 285.53-8.63L285.53-8.63L285.53-8.63Q286.50-6.88 286.88-6.19L286.88-6.19L289.75-29.38L292.88-27.81L286.13 25.81Z"></path></g></g><style>text {
  font-size: 64px;
  font-family: Arial Black;
  dominant-baseline: central;
  text-anchor: middle;
}</style></svg>